PathFileType	4	(X/Y/Z)	c:/Users/goper/Files/vsCode/490R/osim_files/C10/C10_SSWS_03.trc
DataRate	CameraRate	NumFrames	NumMarkers	Units                	OrigDataRate	OrigDataStartFrame	OrigNumFrames
250.00	250.00	8	36	mm	250.0	1466	2345
                Frame#	Time	LPSIS			LASIS			LTH1			LTH2			LTH3			LTH4			LLFE			LMFE			LSH1			LSH2			LSH3			LSH4			LLMAL			LMMAL			LCAL			LMTP5			LTOE			LMTP1			RPSIS			RASIS			RTH1			RTH2			RTH3			RTH4			RLFE			RMFE			RSH1			RSH2			RSH3			RSH4			RLMAL			RMMAL			RCAL			RMTP1			RTOE			RMTP5		
		X1	Y1	Z1	X2	Y2	Z2	X3	Y3	Z3	X4	Y4	Z4	X5	Y5	Z5	X6	Y6	Z6	X7	Y7	Z7	X8	Y8	Z8	X9	Y9	Z9	X10	Y10	Z10	X11	Y11	Z11	X12	Y12	Z12	X13	Y13	Z13	X14	Y14	Z14	X15	Y15	Z15	X16	Y16	Z16	X17	Y17	Z17	X18	Y18	Z18	X19	Y19	Z19	X20	Y20	Z20	X21	Y21	Z21	X22	Y22	Z22	X23	Y23	Z23	X24	Y24	Z24	X25	Y25	Z25	X26	Y26	Z26	X27	Y27	Z27	X28	Y28	Z28	X29	Y29	Z29	X30	Y30	Z30	X31	Y31	Z31	X32	Y32	Z32	X33	Y33	Z33	X34	Y34	Z34	X35	Y35	Z35	X36	Y36	Z36

1466	5.86000	-2282.61353	1026.05310	326.82953	-2465.27051	1024.23352	453.51730	-2412.28760	780.83069	501.69507	-2420.25952	733.43573	494.46457	0.00000	0.00000	0.00000	-2469.20166	745.11475	486.02408	-2435.69629	493.73132	415.13623	0.00000	0.00000	0.00000	-2371.46094	406.66159	426.87930	-2372.30029	359.71585	428.09760	0.00000	0.00000	0.00000	-2424.15259	358.06403	411.55569	-2371.67969	87.00526	369.63528	0.00000	0.00000	0.00000	-2300.34180	41.30433	332.16013	-2481.31177	30.84710	372.98602	-2519.08374	53.31541	306.56760	-2478.75171	27.97524	265.04126	-2283.00610	1022.28253	246.50931	-2445.67139	1001.17059	122.12315	0.00000	0.00000	0.00000	-2452.30859	693.19092	84.42038	-2508.11816	769.58002	75.30116	-2419.90527	730.91425	80.22631	-2560.41284	499.31210	139.80327	-2596.72412	495.42227	254.16049	-2458.87158	455.27493	141.48891	-2439.40576	414.95349	139.54750	-2509.35669	411.86252	149.74374	0.00000	0.00000	0.00000	-2317.18091	184.04962	188.92577	-2347.95337	178.44592	266.42950	-2249.50732	168.03630	239.14427	-2413.28369	61.78096	242.38895	-2439.27344	61.91972	201.59282	-2382.91089	75.55548	145.16258
1467	5.86400	0.00000	0.00000	0.00000	-2469.86353	1023.94586	453.62497	-2415.74243	780.78882	501.41092	-2423.60474	733.31348	494.20889	0.00000	0.00000	0.00000	-2474.63159	742.67230	483.26559	-2436.65820	493.52725	415.52475	-2413.04272	484.51724	297.81976	-2372.27954	406.77151	427.01611	-2373.03394	359.82300	428.23135	0.00000	0.00000	0.00000	-2424.85059	358.02502	411.66965	-2371.76172	87.04314	369.60028	0.00000	0.00000	0.00000	-2300.34888	41.36475	332.14285	-2481.00171	32.32769	375.21722	-2519.19312	53.19715	306.67053	-2478.77466	27.95644	265.04370	-2286.33130	1022.47601	246.08446	-2450.68872	1001.65057	122.35979	0.00000	0.00000	0.00000	-2458.19287	693.79773	83.88817	-2514.37061	770.95868	74.58378	0.00000	0.00000	0.00000	-2567.49585	500.89709	139.53897	-2604.18237	497.23721	254.16261	-2467.27710	454.43509	141.44875	-2448.77197	413.63095	139.39653	-2518.62134	412.41336	149.72095	0.00000	0.00000	0.00000	-2332.21167	179.66452	188.79977	-2363.51514	174.59969	266.15994	-2265.16943	161.42694	239.27390	-2432.06689	58.73633	242.12630	-2457.55615	61.23502	200.30934	-2400.89917	73.37034	144.32451
1468	5.86800	0.00000	0.00000	0.00000	-2474.43433	1023.65833	453.73221	-2419.28320	780.73102	501.14453	-2426.81006	733.18872	493.99167	0.00000	0.00000	0.00000	-2478.00977	742.36084	483.17169	-2437.80005	493.36163	415.85806	0.00000	0.00000	0.00000	-2373.20654	406.87973	427.20197	-2373.79077	359.91272	428.38919	0.00000	0.00000	0.00000	-2425.57910	357.98648	411.79428	-2371.84937	87.07555	369.58035	0.00000	0.00000	0.00000	-2300.35693	41.41198	332.11917	-2481.03125	32.33432	375.22906	-2519.27002	53.11221	306.67111	-2478.83008	27.93814	265.03772	-2290.98730	1022.42407	245.82339	-2455.74316	1002.13678	122.55848	0.00000	0.00000	0.00000	-2463.68555	694.28894	83.51941	-2520.51733	772.21674	73.88176	-2430.59473	732.43036	79.15330	-2575.16528	502.39484	139.53853	-2611.50122	498.97803	254.19756	-2475.62280	453.43320	141.38606	-2458.40552	412.30521	139.61000	-2527.77393	412.79279	149.69823	0.00000	0.00000	0.00000	-2347.40698	175.23035	188.65096	-2380.36328	170.47241	265.98502	-2280.91675	154.81772	239.34378	-2450.89014	57.20432	240.97409	-2483.00342	62.54058	198.65437	-2418.97534	71.25805	143.45430
1469	5.87200	0.00000	0.00000	0.00000	-2478.95972	1023.25281	453.84161	-2422.84863	780.66266	500.99094	-2430.12891	733.04602	493.86462	0.00000	0.00000	0.00000	-2481.36938	741.97357	483.00076	-2439.00708	493.18933	416.10486	0.00000	0.00000	0.00000	-2374.18359	406.91724	427.35715	-2374.56543	359.97598	428.55038	0.00000	0.00000	0.00000	-2426.38989	357.90176	411.87747	-2372.26978	87.62258	369.27115	0.00000	0.00000	0.00000	-2300.36377	41.45285	332.14584	-2480.93604	31.81122	374.54785	-2519.28955	52.97475	306.74106	-2478.75928	27.82743	265.06158	-2297.19653	1022.08514	245.70833	-2460.82178	1002.54199	122.74512	-2438.24951	732.35852	80.73560	-2469.12695	694.71814	83.29185	-2526.55566	773.34595	73.19833	0.00000	0.00000	0.00000	-2583.02686	503.55768	139.79404	-2618.60425	500.61411	254.20340	-2483.91577	452.27692	141.34404	-2467.44385	411.04074	139.49142	-2536.87720	413.10196	149.66974	0.00000	0.00000	0.00000	-2362.72925	170.86658	188.55336	-2396.24316	166.69006	265.68430	-2296.60107	148.43083	239.49832	-2470.15942	54.51011	240.75943	-2495.94995	61.52732	196.17564	-2437.08203	69.20856	142.56497
1470	5.87600	-2304.43091	1026.77673	327.00967	-2483.56714	1022.90546	453.96988	-2426.44141	780.53455	500.86960	-2433.45410	732.89221	493.72290	0.00000	0.00000	0.00000	-2484.78174	741.53656	483.00558	-2440.34131	492.97021	416.26413	0.00000	0.00000	0.00000	-2375.31567	406.93463	427.54865	-2375.64258	360.01859	428.65225	0.00000	0.00000	0.00000	-2427.31909	357.83719	411.93643	-2372.38745	87.62873	369.27747	0.00000	0.00000	0.00000	-2300.39331	41.46116	332.15924	-2480.96558	31.74529	374.55756	-2519.36914	52.86332	306.81888	0.00000	0.00000	0.00000	-2301.89160	1021.84601	245.41656	-2465.87769	1002.88086	122.91813	-2443.54590	732.86029	80.25615	-2474.38330	695.11823	83.11485	-2532.48218	774.33777	72.53671	0.00000	0.00000	0.00000	-2590.93481	504.61386	139.99237	-2624.32935	501.19376	253.22943	-2492.76050	450.87311	141.40895	-2476.78833	409.54123	139.47890	0.00000	0.00000	0.00000	-2524.34717	385.84409	135.23944	-2377.97266	166.50635	188.38432	-2412.27271	162.90788	265.38226	-2313.48267	141.58986	239.58450	-2489.84595	52.84189	239.39029	-2519.70752	63.85131	194.78220	-2455.17456	67.31520	141.63582
1471	5.88000	-2310.75610	1028.04810	325.88333	-2488.00293	1022.41797	454.08273	-2430.09619	780.45459	500.72644	-2436.88306	732.72864	493.63852	0.00000	0.00000	0.00000	-2488.15552	741.09729	482.92416	-2441.75439	492.76172	416.39288	-2418.35571	484.03714	298.40549	-2376.47729	407.00278	427.77173	-2376.54321	360.05194	428.86090	0.00000	0.00000	0.00000	-2428.20581	357.70773	411.97824	-2372.16260	87.07227	369.58621	0.00000	0.00000	0.00000	-2300.39990	41.50066	332.15094	-2482.69824	33.69010	376.13806	-2519.42163	52.75011	306.86084	0.00000	0.00000	0.00000	-2306.68823	1021.48938	245.07513	-2470.89502	1003.08099	123.06255	0.00000	0.00000	0.00000	0.00000	0.00000	0.00000	-2538.29395	775.18414	71.90012	-2556.72656	735.12476	73.37234	-2598.53442	505.56281	140.07919	-2631.21802	502.61533	253.27382	-2500.33960	449.59732	141.18587	-2486.44482	407.82904	139.59419	-2554.76465	413.36780	149.68814	-2534.12085	385.25739	135.25508	-2393.41016	162.18071	188.17560	-2428.26636	159.13464	265.06360	-2330.03931	135.08832	239.65167	-2509.54272	51.30499	238.00230	-2544.18555	64.08231	194.18542	-2473.37085	65.53703	140.63298
1472	5.88400	0.00000	0.00000	0.00000	-2492.52441	1021.91211	454.22656	-2433.73779	780.31683	500.70346	-2440.20361	732.55542	493.64325	0.00000	0.00000	0.00000	-2491.49365	740.63263	482.93134	-2443.14526	492.48553	416.49548	-2421.16309	485.38214	297.67511	-2377.62842	406.96783	427.91818	-2377.67090	360.06186	428.99225	0.00000	0.00000	0.00000	-2429.38281	357.58798	412.03452	-2372.58936	87.61967	369.25330	0.00000	0.00000	0.00000	-2300.40601	41.53754	332.15479	-2480.87280	30.54285	372.61661	-2519.48267	52.66867	306.85538	0.00000	0.00000	0.00000	-2311.48926	1020.98431	244.72092	-2475.97656	1003.29700	123.18267	0.00000	0.00000	0.00000	0.00000	0.00000	0.00000	-2544.01123	775.87396	71.29106	0.00000	0.00000	0.00000	-2603.64404	507.45993	139.18422	-2638.01294	503.97656	253.31934	-2509.53174	447.70078	141.15523	-2495.31030	406.20322	139.53343	-2563.56445	413.44534	149.60793	-2543.96411	384.63007	135.23663	-2409.46509	157.64151	187.91431	-2447.07593	154.49467	264.91116	-2347.85815	128.29129	239.75420	-2529.30127	49.84581	236.55246	-2565.00098	64.62010	192.94215	-2491.54712	63.82982	139.63493
1473	5.88800	-2318.85010	1025.46460	325.74249	-2497.01050	1021.41223	454.36218	-2437.36353	780.16705	500.71381	-2443.47217	732.35419	493.69308	0.00000	0.00000	0.00000	-2494.90820	740.06653	482.92899	-2444.68164	492.18509	416.49933	-2422.35742	485.13577	297.69418	-2378.85571	406.98047	428.06656	-2378.68970	360.02374	429.09402	0.00000	0.00000	0.00000	-2427.28711	355.66116	410.13556	-2372.70752	87.62421	369.25189	0.00000	0.00000	0.00000	-2300.44727	41.57567	332.16000	-2481.21509	30.87378	373.33752	-2519.59326	52.63241	306.86121	0.00000	0.00000	0.00000	-2316.24902	1020.44189	244.37392	-2480.94971	1003.32184	123.25260	0.00000	0.00000	0.00000	0.00000	0.00000	0.00000	-2549.72168	776.41937	70.70477	-2568.61621	736.61945	72.15475	-2613.20288	508.02036	139.61520	-2645.75122	506.11896	254.16386	-2516.93726	446.18533	140.93861	-2504.48291	404.45264	139.56152	-2572.27490	413.35355	149.62378	-2553.64233	383.91031	135.25500	-2426.99707	152.71762	187.97754	-2463.48145	150.90361	264.52097	-2363.61646	122.36269	239.80791	-2546.53564	47.85599	234.10751	-2585.99609	65.35155	191.71942	-2509.75757	62.26509	138.59261
